<svg width="35" height="35" viewBox="0 0 35 35" fill="none" xmlns="http://www.w3.org/2000/svg">
<g clip-path="url(#clip0_431_199)">
<path d="M34.4131 17.7071C34.4131 8.34767 26.8257 0.760254 17.4663 0.760254C8.10695 0.760254 0.519531 8.34767 0.519531 17.7071C0.519531 25.6544 5.99131 32.3233 13.3727 34.1549V22.886H9.87823V17.7071H13.3727V15.4755C13.3727 9.70749 15.9831 7.03396 21.6461 7.03396C22.7198 7.03396 24.5725 7.24478 25.3303 7.45492V12.1492C24.9304 12.1072 24.2356 12.0861 23.3726 12.0861C20.594 12.0861 19.5203 13.1389 19.5203 15.8754V17.7071H25.0558L24.1047 22.886H19.5203V34.5298C27.9117 33.5164 34.4138 26.3716 34.4138 17.7071H34.4131Z" fill="#252122"/>
<path d="M24.1044 22.8857L25.0555 17.7068H19.52V15.8752C19.52 13.1386 20.5937 12.0859 23.3723 12.0859C24.2353 12.0859 24.9301 12.1069 25.33 12.1489V7.45465C24.5722 7.24383 22.7195 7.03369 21.6458 7.03369C15.9828 7.03369 13.3724 9.70722 13.3724 15.4752V17.7068H9.87793V22.8857H13.3724V34.1547C14.6834 34.48 16.0547 34.6536 17.466 34.6536C18.1608 34.6536 18.8462 34.6109 19.5193 34.5295V22.8857H24.1038H24.1044Z" fill="#FFF1E1"/>
</g>
<defs>
<clipPath id="clip0_431_199">
<rect width="33.8936" height="33.8936" fill="white" transform="translate(0.519531 0.760254)"/>
</clipPath>
</defs>
</svg>
