<svg width="89" height="90" viewBox="0 0 89 90" fill="none" xmlns="http://www.w3.org/2000/svg">
<path d="M81.1168 44.181C81.1168 23.7228 64.5322 7.13818 44.074 7.13818C23.6159 7.13818 7.03125 23.7228 7.03125 44.181C7.03125 64.6391 23.6159 81.2237 44.074 81.2237C46.0697 81.2237 48.0284 81.0659 49.9385 80.7621C48.6364 78.7332 47.9421 76.4758 47.8047 74.195C46.5973 75.1527 45.3389 75.6682 44.074 75.6682C39.8018 75.6682 35.6042 69.7879 33.1892 60.8467L57.5101 60.8457C56.3803 59.226 55.6109 57.3361 55.3182 55.2924H31.9932C31.4244 51.847 31.1053 48.1051 31.1053 44.181C31.1053 41.6232 31.2409 39.1427 31.4928 36.7714H56.6553C56.9072 39.1427 57.0427 41.6232 57.0427 44.181C57.0427 45.0746 57.0262 45.9588 56.9939 46.8322C58.3002 44.631 60.2394 42.8496 62.5608 41.7387C62.5088 40.0513 62.4031 38.3928 62.2465 36.7712L74.6837 36.7681C75.1519 38.7083 75.4404 40.7187 75.5307 42.7806C78.0016 44.495 79.8476 47.0466 80.6585 50.0249C80.9601 48.1213 81.1168 46.1694 81.1168 44.181ZM17.3549 60.8482L27.4381 60.8487L27.8137 62.3117C28.9878 66.6427 30.5841 70.4438 32.5185 73.4802C26.2133 70.9914 20.9043 66.5263 17.3549 60.8482ZM13.4659 36.7712H25.9015C25.67 39.1691 25.5498 41.6476 25.5498 44.181C25.5498 48.0426 25.8291 51.7767 26.3562 55.2919L14.6037 55.2932C13.3001 51.8377 12.5868 48.0927 12.5868 44.181C12.5868 41.6515 12.8851 39.1917 13.4483 36.8349L13.4659 36.7712ZM32.4375 14.9138L32.5224 14.8815C29.8461 19.0751 27.8208 24.7266 26.6602 31.2184L15.3709 31.2171C18.7215 23.8102 24.8549 17.9313 32.4375 14.9138ZM43.6457 12.7134L44.074 12.6937L44.5418 12.7171C49.2146 13.1837 53.7228 20.5867 55.8195 31.2169H32.3285C34.4312 20.5568 38.9589 13.1421 43.6457 12.7134ZM56.0253 15.5265L55.6296 14.8817L56.7081 15.3309C63.8303 18.4543 69.5748 24.1378 72.7772 31.2171L61.4879 31.2184C60.3858 25.0538 58.5039 19.6468 56.0253 15.5265ZM77.4089 53.4383C77.4089 58.5521 73.2634 62.6976 68.1496 62.6976C63.0359 62.6976 58.8903 58.5521 58.8903 53.4383C58.8903 48.3246 63.0359 44.1791 68.1496 44.1791C73.2634 44.1791 77.4089 48.3246 77.4089 53.4383ZM84.8163 73.3457C84.8163 79.1106 80.0544 84.9197 68.1496 84.9198C56.2448 84.9199 51.4829 79.1323 51.4829 73.3457V72.9642C51.4829 69.3381 54.4225 66.4013 58.0486 66.4013H78.2506C81.8767 66.4013 84.8163 69.3382 84.8163 72.9643V73.3457Z" fill="#F49C25"/>
</svg>
