<svg width="80" height="80" viewBox="0 0 80 80" fill="none" xmlns="http://www.w3.org/2000/svg">
<path d="M0.577148 39.9913C0.577148 18.2499 18.2021 0.625 39.9435 0.625C61.6849 0.625 79.3098 18.2499 79.3098 39.9913C79.3098 61.7327 61.6849 79.3577 39.9435 79.3577C18.2021 79.3577 0.577148 61.7327 0.577148 39.9913ZM39.9435 6.25L39.6657 6.25112C40.1793 7.25723 40.7417 8.47209 41.2484 9.81849C42.6158 13.4512 43.8563 18.7711 41.6479 23.4736C39.6133 27.8062 36.1076 28.9282 33.4892 29.6047L33.1108 29.7023C30.5647 30.3581 29.5094 30.6298 28.7495 31.7835C28.0386 32.8628 28.1668 34.2174 28.9738 36.847C29.0312 37.0342 29.0932 37.2315 29.1576 37.4368C29.4781 38.4579 29.8605 39.6765 30.0599 40.8229C30.3078 42.2478 30.3741 44.0395 29.4741 45.7665C28.5727 47.4962 27.3813 48.67 25.9765 49.4353C24.6542 50.1557 23.2818 50.4305 22.2409 50.6151L21.855 50.6831C19.8401 51.0372 18.8181 51.2169 17.8352 52.2698C17.0656 53.0943 16.5864 54.5273 16.3085 56.6118C16.195 57.4624 16.1268 58.3058 16.0567 59.1731L16.0191 59.635C15.94 60.5938 15.8428 61.6849 15.6303 62.6188L15.4891 63.2392C21.6361 69.7032 30.3192 73.7327 39.9435 73.7327C46.2165 73.7327 52.0897 72.0208 57.1214 69.0388C56.6744 68.5995 56.1673 68.0571 55.6688 67.4296C54.3356 65.751 52.6104 62.8868 53.2088 59.5187C53.4958 57.9038 54.3629 56.5452 55.2113 55.4936C56.075 54.4229 57.1194 53.4316 58.0387 52.5854C58.2558 52.3856 58.4643 52.1953 58.6646 52.0124C59.3693 51.3689 59.9729 50.8178 60.4887 50.2774C60.8066 49.9444 61.0333 49.6735 61.1868 49.4551C61.3168 49.2701 61.3572 49.1747 61.3634 49.1602C61.3633 49.1601 61.3639 49.1588 61.3634 49.1602C61.6488 48.2161 61.3021 47.5238 60.8917 47.2065C60.5834 46.968 59.7939 46.6138 58.3846 47.5063C57.8369 47.8532 57.3493 48.1616 56.9567 48.3897C56.6621 48.5608 56.0655 48.9073 55.4132 49.0499C55.058 49.1276 54.2781 49.241 53.4273 48.8412C52.4662 48.3895 52.0249 47.5834 51.8474 47.0294C51.6914 46.5428 51.685 46.1089 51.6867 45.9057C51.6886 45.6677 51.7095 45.4407 51.7269 45.2757C51.7412 45.1389 51.759 44.9933 51.7778 44.8381C51.9219 43.6537 52.1339 41.9111 51.4573 39.3133C50.9131 37.2243 50.1206 35.6353 49.3114 34.0128C48.9384 33.2649 48.5618 32.5098 48.2043 31.6955C47.7118 30.5733 47.1702 29.1119 47.2655 27.5561C47.3756 25.7583 48.287 24.292 49.7564 23.1899C51.5398 21.8523 53.7829 18.7907 55.7234 15.6901C56.6515 14.2072 57.4464 12.8217 58.0095 11.8061C58.0541 11.7255 58.0973 11.6473 58.139 11.5716C52.8889 8.20331 46.6443 6.25 39.9435 6.25ZM62.6499 15.0332C62.0801 16.0464 61.3398 17.319 60.4915 18.6744C58.5868 21.7177 55.8573 25.6454 53.1315 27.6898C52.9797 27.8037 52.9081 27.8825 52.8793 27.9188C52.8767 28.0694 52.9385 28.4858 53.3551 29.4348C53.5369 29.8492 53.7923 30.3627 54.0877 30.9566C54.9665 32.7238 56.1992 35.2024 56.9006 37.8954C57.2756 39.335 57.4519 40.6212 57.5183 41.7288C59.9711 40.916 62.4353 41.2895 64.3326 42.7566C66.6851 44.5757 67.6718 47.7323 66.7474 50.7899C66.3264 52.1824 65.3425 53.339 64.5576 54.1613C63.8942 54.8564 63.0992 55.5815 62.3739 56.2432C62.1934 56.4078 62.0169 56.5688 61.8481 56.7242C60.9394 57.5606 60.1679 58.3082 59.5893 59.0254C58.9954 59.7616 58.7938 60.2397 58.7471 60.5028C58.5821 61.4313 59.0364 62.6253 60.0734 63.931C60.5464 64.5265 61.0495 65.0273 61.4392 65.3813C61.5809 65.5099 61.7041 65.616 61.8009 65.6969C69.0723 59.5079 73.6848 50.2883 73.6848 39.9913C73.6848 30.1011 69.4295 21.2047 62.6499 15.0332ZM6.20215 39.9913C6.20215 46.0762 7.81288 51.785 10.6312 56.7143C10.6615 56.4346 10.695 56.1515 10.7328 55.8684C11.0363 53.5923 11.6805 50.6198 13.7233 48.4314C16.0561 45.9324 18.9156 45.4631 20.7442 45.1631C20.9265 45.1331 21.0985 45.1049 21.2588 45.0765C22.2389 44.9027 22.8258 44.7462 23.2854 44.4958C23.6626 44.2904 24.0757 43.9538 24.4858 43.1669C24.5664 43.0122 24.6703 42.6615 24.5182 41.787C24.3883 41.0403 24.1445 40.2589 23.8299 39.2502C23.7558 39.0127 23.6777 38.7625 23.5963 38.4972C22.8629 36.1072 21.7209 32.2284 24.052 28.6894C26.0779 25.6137 29.332 24.8268 31.4401 24.3171C31.6686 24.2619 31.8836 24.2099 32.0821 24.1586C34.3163 23.5813 35.6403 23.0334 36.5564 21.0826C37.7504 18.54 37.2291 15.1079 35.984 11.8C35.3919 10.227 34.6976 8.84552 34.148 7.85447C33.92 7.44348 33.7196 7.10438 33.5656 6.85193C17.9803 9.8335 6.20215 23.5369 6.20215 39.9913Z" fill="#F49C25"/>
</svg>
