<svg width="91" height="91" viewBox="0 0 91 91" fill="none" xmlns="http://www.w3.org/2000/svg">
<path d="M56.4016 58.2891C60.3958 58.2891 63.6338 61.527 63.6338 65.5212V70.349L63.6084 70.6976C62.6096 77.5318 56.4708 80.8181 46.1699 80.8181C35.9061 80.8181 29.6694 77.5694 28.3231 70.8138L28.2766 70.3426V65.5212C28.2766 61.527 31.5146 58.2891 35.5088 58.2891H56.4016ZM56.4016 63.1105H35.5088C34.1774 63.1105 33.0981 64.1898 33.0981 65.5212V70.0867C33.9974 73.9452 38.0822 75.9967 46.1699 75.9967C54.2573 75.9967 58.1587 73.9674 58.8124 70.1599V65.5212C58.8124 64.1898 57.733 63.1105 56.4016 63.1105ZM59.5952 38.9998L77.2945 39.0033C81.2887 39.0033 84.5266 42.2413 84.5266 46.2355V51.0633L84.5013 51.4119C83.5024 58.2461 77.3637 61.5324 67.0628 61.5324L66.0507 61.5216C65.1024 59.2279 63.3609 57.3499 61.1696 56.2239C62.8243 56.5482 64.7848 56.711 67.0628 56.711C75.1501 56.711 79.0516 54.6817 79.7052 50.8742V46.2355C79.7052 44.9041 78.6259 43.8248 77.2945 43.8248H60.4195C60.4195 42.1329 60.129 40.5089 59.5952 38.9998ZM14.6159 39.0033L32.3152 38.9998C31.8704 40.2574 31.5945 41.5948 31.5149 42.9847L31.4909 43.8248H14.6159C13.2845 43.8248 12.2052 44.9041 12.2052 46.2355V50.801C13.1045 54.6594 17.1894 56.711 25.277 56.711C27.2766 56.711 29.0202 56.5869 30.5221 56.3426C28.4304 57.4785 26.7722 59.3093 25.8542 61.5245L25.277 61.5324C15.0133 61.5324 8.77654 58.2837 7.43028 51.5281L7.38379 51.0569V46.2355C7.38379 42.2413 10.6217 39.0033 14.6159 39.0033ZM45.9552 32.5748C52.1684 32.5748 57.2052 37.6116 57.2052 43.8248C57.2052 50.038 52.1684 55.0748 45.9552 55.0748C39.742 55.0748 34.7052 50.038 34.7052 43.8248C34.7052 37.6116 39.742 32.5748 45.9552 32.5748ZM45.9552 37.3962C42.4048 37.3962 39.5266 40.2744 39.5266 43.8248C39.5266 47.3752 42.4048 50.2533 45.9552 50.2533C49.5056 50.2533 52.3838 47.3752 52.3838 43.8248C52.3838 40.2744 49.5056 37.3962 45.9552 37.3962ZM66.8481 13.2891C73.0613 13.2891 78.0981 18.3259 78.0981 24.5391C78.0981 30.7523 73.0613 35.7891 66.8481 35.7891C60.6349 35.7891 55.5981 30.7523 55.5981 24.5391C55.5981 18.3259 60.6349 13.2891 66.8481 13.2891ZM25.0624 13.2891C31.2756 13.2891 36.3124 18.3259 36.3124 24.5391C36.3124 30.7523 31.2756 35.7891 25.0624 35.7891C18.8492 35.7891 13.8124 30.7523 13.8124 24.5391C13.8124 18.3259 18.8492 13.2891 25.0624 13.2891ZM66.8481 18.1105C63.2977 18.1105 60.4195 20.9887 60.4195 24.5391C60.4195 28.0895 63.2977 30.9676 66.8481 30.9676C70.3985 30.9676 73.2766 28.0895 73.2766 24.5391C73.2766 20.9887 70.3985 18.1105 66.8481 18.1105ZM25.0624 18.1105C21.512 18.1105 18.6338 20.9887 18.6338 24.5391C18.6338 28.0895 21.512 30.9676 25.0624 30.9676C28.6128 30.9676 31.4909 28.0895 31.4909 24.5391C31.4909 20.9887 28.6128 18.1105 25.0624 18.1105Z" fill="#F49C25"/>
</svg>
