<svg width="50" height="69" viewBox="0 0 50 69" fill="none" xmlns="http://www.w3.org/2000/svg">
<path d="M2.94594 63.4362H47.2131C48.5135 63.4362 49.5677 64.4904 49.5677 65.7909C49.5677 67.01 48.6412 68.0128 47.4538 68.1333L47.2131 68.1455H2.94594C1.64551 68.1455 0.591309 67.0913 0.591309 65.7909C0.591309 64.5717 1.51786 63.569 2.7052 63.4484L2.94594 63.4362H47.2131H2.94594ZM24.3678 0.344188L24.6086 0.332031C25.8277 0.332031 26.8305 1.25858 26.9511 2.44592L26.9632 2.68667V48.4419L37.5999 37.8071C38.5195 36.8875 40.0103 36.8875 40.9299 37.8071C41.8494 38.7266 41.8494 40.2175 40.9299 41.137L26.2781 55.7888C25.3585 56.7084 23.8676 56.7084 22.9481 55.7888L8.2963 41.137C7.37675 40.2175 7.37675 38.7266 8.2963 37.8071C9.21584 36.8875 10.7067 36.8875 11.6263 37.8071L22.2539 48.4344V2.68667C22.2539 1.46751 23.1805 0.464769 24.3678 0.344188L24.6086 0.332031L24.3678 0.344188Z" fill="#F49C25"/>
</svg>
