<svg width="35" height="35" viewBox="0 0 35 35" fill="none" xmlns="http://www.w3.org/2000/svg">
<g clip-path="url(#clip0_431_197)">
<path d="M17.7749 3.812C22.3029 3.812 22.8391 3.83186 24.6198 3.9113C26.2748 3.98412 27.1685 4.26215 27.7643 4.49385C28.552 4.79836 29.1213 5.16907 29.7105 5.75824C30.3063 6.35402 30.6704 6.91671 30.9749 7.70447C31.2066 8.30026 31.4846 9.20055 31.5574 10.8489C31.6369 12.6363 31.6567 13.1725 31.6567 17.6938C31.6567 22.2218 31.6369 22.758 31.5574 24.5387C31.4846 26.1937 31.2066 27.0874 30.9749 27.6832C30.6704 28.4709 30.2997 29.0402 29.7105 29.6294C29.1147 30.2252 28.552 30.5893 27.7643 30.8938C27.1685 31.1255 26.2682 31.4035 24.6198 31.4763C22.8325 31.5558 22.2963 31.5756 17.7749 31.5756C13.247 31.5756 12.7107 31.5558 10.93 31.4763C9.27505 31.4035 8.38137 31.1255 7.78558 30.8938C6.99782 30.5893 6.42851 30.2186 5.83935 29.6294C5.24356 29.0336 4.87947 28.4709 4.57496 27.6832C4.34326 27.0874 4.06523 26.1871 3.99241 24.5387C3.91297 22.7514 3.89311 22.2152 3.89311 17.6938C3.89311 13.1658 3.91297 12.6296 3.99241 10.8489C4.06523 9.19393 4.34326 8.30026 4.57496 7.70447C4.87947 6.91671 5.25018 6.3474 5.83935 5.75824C6.43513 5.16245 6.99782 4.79836 7.78558 4.49385C8.38137 4.26215 9.28167 3.98412 10.93 3.9113C12.7107 3.83186 13.247 3.812 17.7749 3.812ZM17.7749 0.760254C13.1741 0.760254 12.5982 0.780113 10.791 0.859552C8.99039 0.93899 7.75248 1.23026 6.68007 1.64731C5.56131 2.08422 4.61468 2.66015 3.67466 3.60679C2.72802 4.5468 2.15209 5.49344 1.71518 6.60558C1.29813 7.68461 1.00686 8.9159 0.927423 10.7165C0.847985 12.5303 0.828125 13.1063 0.828125 17.7071C0.828125 22.3078 0.847985 22.8838 0.927423 24.691C1.00686 26.4916 1.29813 27.7295 1.71518 28.8019C2.15209 29.9207 2.72802 30.8673 3.67466 31.8073C4.61468 32.7473 5.56131 33.3299 6.67345 33.7602C7.75248 34.1772 8.98377 34.4685 10.7844 34.5479C12.5916 34.6274 13.1675 34.6472 17.7683 34.6472C22.3691 34.6472 22.945 34.6274 24.7522 34.5479C26.5528 34.4685 27.7907 34.1772 28.8632 33.7602C29.9753 33.3299 30.9219 32.7473 31.8619 31.8073C32.802 30.8673 33.3845 29.9207 33.8148 28.8085C34.2319 27.7295 34.5231 26.4982 34.6026 24.6976C34.682 22.8904 34.7019 22.3145 34.7019 17.7137C34.7019 13.1129 34.682 12.537 34.6026 10.7297C34.5231 8.92914 34.2319 7.69123 33.8148 6.61882C33.3978 5.49344 32.8218 4.5468 31.8752 3.60679C30.9352 2.66677 29.9885 2.08422 28.8764 1.65393C27.7974 1.23688 26.5661 0.94561 24.7655 0.866171C22.9516 0.780113 22.3757 0.760254 17.7749 0.760254Z" fill="#252122"/>
<path d="M17.7754 9.00195C12.9694 9.00195 9.07031 12.901 9.07031 17.707C9.07031 22.5131 12.9694 26.4121 17.7754 26.4121C22.5814 26.4121 26.4805 22.5131 26.4805 17.707C26.4805 12.901 22.5814 9.00195 17.7754 9.00195ZM17.7754 23.3538C14.6575 23.3538 12.1287 20.825 12.1287 17.707C12.1287 14.5891 14.6575 12.0603 17.7754 12.0603C20.8934 12.0603 23.4221 14.5891 23.4221 17.707C23.4221 20.825 20.8934 23.3538 17.7754 23.3538Z" fill="#252122"/>
<path d="M28.8566 8.65778C28.8566 9.78316 27.943 10.6901 26.8243 10.6901C25.6989 10.6901 24.792 9.77654 24.792 8.65778C24.792 7.53241 25.7055 6.62549 26.8243 6.62549C27.943 6.62549 28.8566 7.53903 28.8566 8.65778Z" fill="#252122"/>
</g>
<defs>
<clipPath id="clip0_431_197">
<rect width="33.8936" height="33.8936" fill="white" transform="translate(0.828125 0.760254)"/>
</clipPath>
</defs>
</svg>
