<svg width="35" height="35" viewBox="0 0 35 35" fill="none" xmlns="http://www.w3.org/2000/svg">
<g clip-path="url(#clip0_431_196)">
<path d="M31.873 0.760254H2.98345C2.31988 0.760254 1.68348 1.02386 1.21427 1.49308C0.745049 1.96229 0.481445 2.59869 0.481445 3.26226V32.1518C0.481445 32.8154 0.745049 33.4518 1.21427 33.921C1.68348 34.3903 2.31988 34.6539 2.98345 34.6539H31.873C32.5366 34.6539 33.173 34.3903 33.6422 33.921C34.1114 33.4518 34.375 32.8154 34.375 32.1518V3.26226C34.375 2.59869 34.1114 1.96229 33.6422 1.49308C33.173 1.02386 32.5366 0.760254 31.873 0.760254ZM10.5836 29.6334H5.48781V13.4468H10.5836V29.6334ZM8.03219 11.2037C7.45415 11.2005 6.89004 11.0261 6.41104 10.7025C5.93203 10.3789 5.55961 9.92075 5.34077 9.38574C5.12192 8.85072 5.06647 8.26287 5.1814 7.69637C5.29633 7.12987 5.5765 6.61011 5.98655 6.20269C6.3966 5.79527 6.91814 5.51844 7.48537 5.40715C8.05259 5.29586 8.64008 5.35509 9.17367 5.57736C9.70727 5.79963 10.1631 6.17499 10.4835 6.65606C10.804 7.13713 10.9748 7.70236 10.9743 8.2804C10.9798 8.6674 10.9073 9.05153 10.7611 9.40991C10.6149 9.76828 10.3981 10.0936 10.1236 10.3664C9.84901 10.6392 9.52235 10.8539 9.16304 10.9977C8.80374 11.1416 8.41914 11.2117 8.03219 11.2037ZM29.3663 29.6475H24.2729V20.8046C24.2729 18.1966 23.1643 17.3917 21.7332 17.3917C20.2221 17.3917 18.7393 18.5309 18.7393 20.8705V29.6475H13.6435V13.4586H18.5439V15.7017H18.6098C19.1017 14.7061 20.8247 13.0043 23.4538 13.0043C26.2971 13.0043 29.3687 14.6919 29.3687 19.6348L29.3663 29.6475Z" fill="#252122"/>
</g>
<defs>
<clipPath id="clip0_431_196">
<rect width="33.8936" height="33.8936" fill="white" transform="translate(0.481445 0.760254)"/>
</clipPath>
</defs>
</svg>
