<svg width="772" height="343" viewBox="0 0 772 343" fill="none" xmlns="http://www.w3.org/2000/svg">
<g clip-path="url(#clip0_283_112)">
<path d="M110.475 149.096C134.027 149.096 153.12 129.945 153.12 106.322C153.12 82.6984 134.027 63.5478 110.475 63.5478C86.9224 63.5478 67.8296 82.6984 67.8296 106.322C67.8296 129.945 86.9224 149.096 110.475 149.096Z" fill="#F49C25"/>
<path d="M498.784 188.506C517.562 188.506 532.785 173.237 532.785 154.402C532.785 135.567 517.562 120.298 498.784 120.298C480.006 120.298 464.783 135.567 464.783 154.402C464.783 173.237 480.006 188.506 498.784 188.506Z" fill="#E31D38"/>
<path d="M283.354 210.441C297.973 210.441 309.823 198.554 309.823 183.892C309.823 169.229 297.973 157.343 283.354 157.343C268.736 157.343 256.886 169.229 256.886 183.892C256.886 198.554 268.736 210.441 283.354 210.441Z" fill="#25944A"/>
<path d="M704.151 210.441C718.77 210.441 730.62 198.554 730.62 183.892C730.62 169.229 718.77 157.343 704.151 157.343C689.533 157.343 677.683 169.229 677.683 183.892C677.683 198.554 689.533 210.441 704.151 210.441Z" fill="#38B5AD"/>
<path d="M540.164 276.572C543.863 301.756 534.472 321.884 512.066 335.052C490.811 347.548 465.128 343.242 446.69 325.402C431.05 310.272 426.412 283.493 435.957 263.423C446.537 241.161 469.862 228.646 494.395 232.106C530.447 237.162 560.845 215.112 566.652 179.682C571.904 147.712 549.268 116.645 515.842 110.09C508.252 108.61 500.624 109.013 492.996 110.032C461.563 114.204 432.967 90.7117 431.261 59.3377C429.479 25.8106 454.146 -0.123005 487.361 0.396051C518.775 0.876658 543.461 28.2905 540.605 60.0875C539.033 77.6008 539.819 94.1913 550.322 109.398C566.499 132.794 596.283 142.54 622.733 132.428C650.505 121.797 666.873 94.3067 662.541 65.5471C657.769 33.8848 678.315 5.106 708.789 0.761312C739.571 -3.62182 768.454 18.7168 771.693 49.3795C774.952 80.2345 752.412 107.398 720.711 110.551C716.437 110.974 712.009 110.321 707.678 109.801C681.382 106.726 659.839 115.473 645.541 137.811C631.779 159.323 631.664 182.508 645.406 204.097C659.915 226.877 681.765 235.721 708.464 232.126C732.69 228.877 755.632 240.873 766.327 262.596C776.657 283.551 772.498 308.696 755.958 325.383C738.996 342.492 713.6 346.76 692.479 336.09C671.013 325.229 658.708 302.506 662.081 279.071C665.819 253.215 658.133 231.837 636.743 216.823C615.334 201.79 592.258 201.232 569.795 214.401C547.505 227.454 538.516 248.082 539.992 273.592C540.03 274.323 540.068 275.053 540.145 276.591L540.164 276.572Z" fill="#0D1825"/>
<path d="M107.063 153.902H101.256V180.124C101.256 185.66 101.658 190.659 102.482 195.138C103.306 199.617 104.303 203.135 105.491 205.673C106.68 208.211 107.868 210.344 109.075 212.055C110.264 213.766 111.318 214.939 112.199 215.535L113.541 216.65V220.245H53.8764V216.65C54.183 216.496 54.6239 216.246 55.218 215.862C55.8122 215.497 56.8088 214.401 58.2271 212.613C59.6454 210.825 60.9104 208.73 62.0221 206.346C63.1337 203.962 64.1495 200.406 65.0312 195.696C65.932 190.986 66.3728 185.718 66.3728 179.893V95.6139C66.3728 86.79 65.1079 79.8116 62.5779 74.6595C60.0479 69.5073 56.3105 66.9313 51.4039 66.9313C43.5074 66.9313 36.6075 70.7377 30.7235 78.3697C24.8394 85.9826 21.8878 95.6331 21.8878 107.283C21.8878 117.587 24.6094 126.008 30.0527 132.505C35.4959 139.003 41.9358 143.367 49.3915 145.616C50.139 145.924 50.6181 146.52 50.8481 147.404C51.0781 148.308 50.8098 148.981 50.0623 149.423C45.2899 153.152 40.0383 155.363 34.3076 156.036C28.5769 156.709 23.1336 155.882 17.997 153.575C12.8605 151.268 8.56722 146.924 5.15562 140.58C1.72485 134.236 0.019043 126.43 0.019043 117.145C0.019043 108.475 1.72485 100.555 5.15562 93.3839C8.58639 86.2133 13.0905 80.4267 18.6679 76.0052C24.2644 71.6028 30.3593 68.2001 36.9909 65.7971C43.6224 63.4132 50.369 62.2021 57.2113 62.2021H108.175C128.587 62.2021 144.38 66.2008 155.554 74.1981C166.728 82.1954 172.324 93.5185 172.324 108.167C172.324 114.588 170.906 120.452 168.069 125.758C165.233 131.063 161.553 135.427 157.01 138.869C152.468 142.31 147.255 145.193 141.371 147.5C135.487 149.826 129.679 151.46 123.929 152.441C118.199 153.421 112.564 153.902 107.063 153.902ZM101.256 68.4885V147.616C111.395 146.577 119.214 142.656 124.715 135.85C130.216 129.045 132.976 119.817 132.976 108.167C132.976 96.5175 130.254 86.8284 124.811 80.0423C119.368 73.2369 111.509 69.392 101.236 68.4885H101.256Z" fill="#0D1825"/>
<path d="M218.611 189.774C218.611 195.907 219.282 201.251 220.623 205.808C221.965 210.364 223.23 213.324 224.418 214.67L226.431 216.919V220.514H178.611V216.919C178.898 216.765 179.205 216.515 179.512 216.131C179.799 215.766 180.432 214.862 181.409 213.44C182.367 212.017 183.191 210.383 183.862 208.499C184.533 206.634 185.166 204.02 185.76 200.655C186.354 197.291 186.661 193.677 186.661 189.774C186.814 142.098 186.891 116.318 186.891 112.435V109.417C186.891 108.898 186.699 107.821 186.335 106.168C185.971 104.534 185.357 103.323 184.552 102.573C183.728 101.823 182.501 101.074 180.872 100.324C179.224 99.5741 177.212 99.2089 174.835 99.2089V95.1718C175.142 95.018 176.253 95.0564 178.189 95.2871C180.125 95.5178 182.885 95.3256 186.45 94.7296C190.034 94.1337 193.637 93.3839 197.298 92.4804C200.939 91.5768 204.562 89.9428 208.146 87.5397C211.73 85.1559 214.548 82.3107 216.637 79.0234H218.649V189.755L218.611 189.774Z" fill="#0D1825"/>
<path d="M319.847 193.139C319.847 198.368 320.48 202.962 321.745 206.923C323.01 210.883 324.313 213.536 325.654 214.881L327.667 216.9V220.495H307.772C304.342 220.495 301.582 219.937 299.512 218.822C297.422 217.707 294.893 215.727 291.922 212.882C289.833 210.94 287.82 210.787 285.884 212.44C283.201 214.824 281.227 216.515 279.962 217.477C278.697 218.457 276.646 219.418 273.81 220.399C270.973 221.36 267.619 221.86 263.747 221.86C254.509 221.86 247.092 219.361 241.514 214.343C235.918 209.345 233.139 202.943 233.139 195.176C233.139 189.198 234.672 184.007 237.719 179.605C240.767 175.202 244.638 171.684 249.334 169.07C254.03 166.455 258.764 164.129 263.517 162.13C268.29 160.111 272.947 157.939 277.49 155.632C282.032 153.325 285.118 150.884 286.766 148.346C289.143 144.309 290.35 140.233 290.35 136.119C290.35 132.005 289.047 128.391 286.44 125.239C283.834 122.105 280.518 120.529 276.493 120.529C273.062 120.529 270.015 121.913 267.331 124.681C264.648 127.449 263.671 131.448 264.418 136.677C265.319 143.405 264.188 148.673 261.064 152.479C257.94 156.286 253.838 157.824 248.778 157.074C245.194 156.632 242.492 155.363 240.614 153.268C238.754 151.172 237.892 148.827 238.045 146.212C238.199 143.598 238.639 140.868 239.387 138.023C242.358 130.544 247.437 124.95 254.586 121.201C261.735 117.472 269.938 115.588 279.176 115.588C291.845 115.588 301.831 118.548 309.133 124.45C316.435 130.352 320.077 138.907 320.077 150.115C319.924 169.704 319.847 184.046 319.847 193.158V193.139ZM287.878 196.061V161.092C287.878 160.342 287.552 159.785 286.881 159.4C286.21 159.035 285.501 159.073 284.754 159.515C281.917 161.765 279.234 164.148 276.704 166.686C274.174 169.224 271.605 172.896 268.999 177.663C266.392 182.45 265.089 187.237 265.089 192.004C265.089 197.387 266.431 201.271 269.114 203.654C271.797 206.038 274.768 207.249 278.045 207.249C280.729 207.249 283.029 206.057 284.964 203.654C286.9 201.271 287.878 198.714 287.878 196.042V196.061Z" fill="#0D1825"/>
<path d="M440.538 189.774C440.538 195.907 441.208 201.251 442.55 205.808C443.892 210.364 445.233 213.324 446.575 214.67L448.587 216.919V220.514H430.935C424.821 220.514 419.608 218.303 415.296 213.901C410.964 209.499 408.817 204.231 408.817 198.099V150.576C408.07 136.389 402.627 129.276 392.507 129.276C389.67 129.276 387.064 130.025 384.687 131.525C379.033 134.966 376.196 140.483 376.196 148.115V189.813C376.196 195.945 376.867 201.29 378.209 205.846C379.55 210.402 380.815 213.363 382.004 214.708L384.016 216.958V220.553H336.196V216.958C336.484 216.804 336.79 216.554 337.097 216.169C337.384 215.804 338.017 214.901 338.994 213.478C339.953 212.055 340.777 210.421 341.448 208.537C342.119 206.673 342.751 204.058 343.345 200.694C343.939 197.33 344.246 193.715 344.246 189.813C344.399 167.993 344.476 155.209 344.476 151.48V148.346C344.476 147.75 344.284 146.635 343.92 144.982C343.556 143.348 342.943 142.137 342.138 141.387C341.314 140.637 340.087 139.887 338.458 139.138C336.809 138.388 334.797 138.023 332.42 138.023V134.216C332.708 134.062 333.839 134.062 335.775 134.216C337.71 134.37 340.47 134.139 344.035 133.543C347.619 132.947 351.223 132.198 354.883 131.294C358.525 130.391 362.147 128.795 365.731 126.469C369.316 124.162 372.133 121.355 374.222 118.068H376.235V130.179C385.166 123.009 392.928 118.818 399.483 117.626C411.251 115.684 421.045 118.068 428.865 124.796C436.685 131.525 440.595 140.791 440.595 152.595V189.813L440.538 189.774Z" fill="#0D1825"/>
<path d="M545.128 192.908L548.923 196.945C548.482 197.541 547.907 198.368 547.237 199.406C546.566 200.463 544.994 202.366 542.541 205.115C540.088 207.884 537.404 210.306 534.491 212.401C531.578 214.497 527.706 216.4 522.876 218.111C518.027 219.822 513.006 220.687 507.792 220.687C498.995 220.687 490.773 218.861 483.087 215.189C475.42 211.536 468.904 205.731 463.537 197.81C458.171 189.89 455.2 180.547 454.606 169.781C453.858 154.979 457.883 142.656 466.681 132.794C475.478 122.932 487.169 117.991 501.774 117.991C512.047 117.991 520.73 120.336 527.802 125.046C534.874 129.756 539.283 135.504 540.988 142.31C542.694 149.115 542.733 156.017 541.103 163.053C539.455 170.089 535.028 176.317 527.802 181.777C520.576 187.237 511.53 190.486 500.643 191.524C506.01 197.06 511.664 200.559 517.625 202.059C521.055 202.809 524.18 203.039 527.016 202.732C529.853 202.424 532.383 201.77 534.606 200.713C536.849 199.675 538.746 198.541 540.298 197.349C541.87 196.157 543.097 195.1 543.978 194.215L545.09 192.87L545.128 192.908ZM495.737 185.737C499.608 186.775 504.036 185.026 509.038 180.47C514.021 175.914 516.973 170.493 517.874 164.225C519.062 157.209 518.698 150.403 516.762 143.828C514.826 137.254 511.836 132.352 507.831 129.141C503.806 125.931 499.417 125.296 494.644 127.238C490.179 129.18 486.978 133.294 485.042 139.561C483.106 145.847 482.991 153.268 484.716 161.861C486.422 170.454 490.121 178.413 495.775 185.737H495.737Z" fill="#0D1825"/>
<path d="M743.595 193.139C743.595 198.368 744.228 202.962 745.493 206.923C746.758 210.883 748.061 213.536 749.402 214.881L751.415 216.9V220.495H731.52C728.09 220.495 725.33 219.937 723.26 218.822C721.17 217.707 718.641 215.727 715.67 212.882C713.581 210.94 711.568 210.787 709.632 212.44C706.949 214.824 704.975 216.515 703.71 217.477C702.445 218.457 700.394 219.418 697.558 220.399C694.721 221.36 691.367 221.86 687.495 221.86C678.257 221.86 670.84 219.361 665.262 214.343C659.666 209.345 656.887 202.943 656.887 195.176C656.887 189.198 658.42 184.007 661.467 179.605C664.515 175.202 668.386 171.684 673.082 169.07C677.778 166.455 682.512 164.129 687.265 162.13C692.038 160.111 696.695 157.939 701.238 155.632C705.78 153.325 708.866 150.884 710.514 148.346C712.891 144.309 714.098 140.233 714.098 136.119C714.098 132.005 712.795 128.391 710.188 125.239C707.582 122.105 704.266 120.529 700.241 120.529C696.81 120.529 693.763 121.913 691.079 124.681C688.396 127.449 687.419 131.448 688.166 136.677C689.067 143.405 687.936 148.673 684.812 152.479C681.688 156.286 677.586 157.824 672.526 157.074C668.942 156.632 666.221 155.363 664.362 153.268C662.502 151.172 661.64 148.827 661.793 146.212C661.947 143.598 662.387 140.868 663.135 138.023C666.106 130.544 671.185 124.95 678.334 121.201C685.483 117.472 693.686 115.588 702.924 115.588C715.593 115.588 725.579 118.548 732.881 124.45C740.184 130.352 743.825 138.907 743.825 150.115C743.672 169.704 743.595 184.046 743.595 193.158V193.139ZM711.626 196.061V161.092C711.626 160.342 711.3 159.785 710.629 159.4C709.958 159.035 709.249 159.073 708.502 159.515C705.665 161.765 702.982 164.148 700.452 166.686C697.922 169.224 695.353 172.896 692.747 177.663C690.14 182.45 688.837 187.237 688.837 192.004C688.837 197.387 690.179 201.271 692.862 203.654C695.545 206.038 698.516 207.249 701.793 207.249C704.477 207.249 706.777 206.057 708.712 203.654C710.648 201.271 711.626 198.714 711.626 196.042V196.061Z" fill="#0D1825"/>
</g>
<defs>
<clipPath id="clip0_283_112">
<rect width="772" height="342" fill="white" transform="translate(0 0.203796)"/>
</clipPath>
</defs>
</svg>
