<svg width="12" height="11" viewBox="0 0 12 11" fill="none" xmlns="http://www.w3.org/2000/svg">
<path d="M1.33894 0.115116C1.19327 -0.0305594 0.95708 -0.0305594 0.811405 0.115116C0.66573 0.260791 0.66573 0.496977 0.811405 0.642653L5.47156 5.30281L0.811489 9.96289C0.665814 10.1086 0.665814 10.3447 0.811489 10.4904C0.957164 10.6361 1.19335 10.6361 1.33903 10.4904L5.9991 5.83035L10.659 10.4903C10.8047 10.636 11.0409 10.636 11.1866 10.4903C11.3322 10.3446 11.3322 10.1084 11.1866 9.96274L6.52664 5.30281L11.1867 0.642798C11.3323 0.497123 11.3323 0.260937 11.1867 0.115262C11.041 -0.0304137 10.8048 -0.0304137 10.6591 0.115262L5.9991 4.77528L1.33894 0.115116Z" fill="#E31D38"/>
</svg>
