<svg width="90" height="90" viewBox="0 0 90 90" fill="none" xmlns="http://www.w3.org/2000/svg">
<path d="M40.3513 8.6582C30.533 8.6582 22.5736 16.6176 22.5736 26.436C22.5736 36.2544 30.533 44.2138 40.3513 44.2138C50.1697 44.2138 58.1291 36.2544 58.1291 26.436C58.1291 16.6176 50.1697 8.6582 40.3513 8.6582ZM27.018 26.436C27.018 19.0722 32.9876 13.1026 40.3513 13.1026C47.7151 13.1026 53.6847 19.0722 53.6847 26.436C53.6847 33.7998 47.7151 39.7693 40.3513 39.7693C32.9876 39.7693 27.018 33.7998 27.018 26.436ZM18.1679 48.6582C13.2542 48.6582 9.24023 52.5999 9.24023 57.5471C9.24023 65.0635 12.9416 70.7307 18.7291 74.4208C24.4268 78.0537 32.108 79.7693 40.3513 79.7693C44.5951 79.7693 48.6899 79.3146 52.4417 78.3778L48.9706 74.5819C46.2884 75.0731 43.3937 75.3249 40.3513 75.3249C32.6398 75.3249 25.8766 73.7071 21.1185 70.6734C16.4503 67.6968 13.6847 63.364 13.6847 57.5471C13.6847 55.088 15.6752 53.1026 18.1679 53.1026L41.6807 53.1027C42.1854 51.9833 42.8342 50.9107 43.6283 49.912C43.9806 49.4689 44.3527 49.0509 44.7425 48.6582L18.1679 48.6582ZM64.793 53.1152L62.0009 50.926C57.3986 47.3175 50.7467 48.0999 47.1072 52.6777C43.8533 56.7705 44.0554 62.6209 47.5839 66.4795L63.153 83.5048C64.0341 84.4683 65.5519 84.4683 66.4329 83.5048L82.0032 66.4775C85.5307 62.6198 85.7333 56.7711 82.4811 52.6787C78.8428 48.1003 72.1915 47.3167 67.5887 50.924L64.793 53.1152Z" fill="#F49C25"/>
</svg>
