<svg width="90" height="90" viewBox="0 0 90 90" fill="none" xmlns="http://www.w3.org/2000/svg">
<path d="M11.0473 13.6269C11.0473 12.0928 12.291 10.8491 13.8251 10.8491H74.9362C76.4703 10.8491 77.7139 12.0928 77.7139 13.6269C77.7139 15.161 76.4703 16.4047 74.9362 16.4047H70.9521L80.3205 41.8333C80.4338 42.1408 80.4918 42.4659 80.4918 42.7936C80.4918 49.9528 75.1511 55.2937 67.9918 55.2937C60.8325 55.2937 55.4918 49.9528 55.4918 42.7936C55.4918 42.4659 55.5497 42.1408 55.663 41.8333L65.0315 16.4047H47.1584L47.1584 60.8491H63.8251C68.4275 60.8491 72.1584 64.5801 72.1584 69.1824C72.1584 73.7847 68.4275 77.5157 63.8252 77.5157H24.9361C20.3338 77.5157 16.6029 73.7847 16.6029 69.1824C16.6029 64.5801 20.3338 60.8491 24.9361 60.8491H41.6029L41.6028 16.4047H23.3893L33.0877 41.8026C33.2085 42.119 33.2704 42.4549 33.2704 42.7936C33.2704 49.9531 27.9285 55.2937 20.7695 55.2937C13.6102 55.2937 8.26953 49.9528 8.26953 42.7936C8.26953 42.4549 8.33146 42.1191 8.45226 41.8027L18.1497 16.4047H13.8251C12.291 16.4047 11.0473 15.161 11.0473 13.6269ZM22.1584 69.1824C22.1584 70.7165 23.4021 71.9601 24.9361 71.9601H63.8252C65.3592 71.9601 66.6029 70.7165 66.6029 69.1824C66.6029 67.6483 65.3592 66.4047 63.8251 66.4047H24.9361C23.4021 66.4047 22.1584 67.6483 22.1584 69.1824ZM20.7697 25.1178L15.0813 40.0158H26.4585L20.7697 25.1178ZM27.2179 45.5713H14.3219C15.3084 48.119 17.6879 49.7381 20.7695 49.7381C23.8514 49.7381 26.2312 48.1188 27.2179 45.5713ZM67.9918 49.7381C71.0734 49.7381 73.4529 48.119 74.4394 45.5713H61.5441C62.5307 48.119 64.9101 49.7381 67.9918 49.7381ZM62.2532 40.0158H73.7303L67.9918 24.4398L62.2532 40.0158Z" fill="#F49C25"/>
</svg>
