<svg width="90" height="90" viewBox="0 0 90 90" fill="none" xmlns="http://www.w3.org/2000/svg">
<path d="M38.8505 11.6495C41.0242 7.24508 47.3048 7.24509 49.4785 11.6495L57.7135 28.3355L76.1276 31.0112C80.9882 31.7175 82.9289 37.6907 79.4118 41.119L66.0873 54.1073L69.2328 72.447C70.063 77.2879 64.982 80.9795 60.6345 78.6939L44.1645 70.0351L27.6944 78.6939C23.347 80.9795 18.2659 77.2879 19.0962 72.447L22.2417 54.1073L8.91713 41.119C5.39999 37.6907 7.3408 31.7175 12.2014 31.0112L30.6155 28.3355L38.8505 11.6495ZM44.1645 17.6196L36.9132 32.3122C36.0501 34.0612 34.3815 35.2735 32.4514 35.5539L16.2371 37.91L27.9699 49.3466C29.3665 50.708 30.0039 52.6695 29.6742 54.5918L26.9044 70.7406L41.4069 63.1161C43.1333 62.2085 45.1957 62.2085 46.9221 63.1161L61.4245 70.7405L58.6548 54.5918C58.3251 52.6695 58.9624 50.708 60.3591 49.3466L72.0918 37.91L55.8776 35.5539C53.9474 35.2735 52.2789 34.0612 51.4157 32.3122L44.1645 17.6196Z" fill="#F49C25"/>
</svg>
