<svg width="90" height="90" viewBox="0 0 90 90" fill="none" xmlns="http://www.w3.org/2000/svg">
<path d="M33.1685 22.4193C33.1685 16.289 38.1382 11.3193 44.2685 11.3193C50.3989 11.3193 55.3685 16.289 55.3685 22.4193C55.3685 28.5497 50.3989 33.5194 44.2685 33.5194C38.1382 33.5194 33.1685 28.5497 33.1685 22.4193ZM44.2685 16.8749C41.2064 16.8749 38.7241 19.3572 38.7241 22.4193C38.7241 25.4815 41.2064 27.9638 44.2685 27.9638C47.3306 27.9638 49.813 25.4815 49.813 22.4193C49.813 19.3572 47.3306 16.8749 44.2685 16.8749ZM60.9354 25.197C60.9354 20.5947 64.6664 16.8637 69.2688 16.8637C73.8711 16.8637 77.6021 20.5947 77.6021 25.197C77.6021 29.7994 73.8711 33.5304 69.2688 33.5304C64.6664 33.5304 60.9354 29.7994 60.9354 25.197ZM69.2688 22.4193C67.7347 22.4193 66.491 23.6629 66.491 25.197C66.491 26.7312 67.7347 27.9748 69.2688 27.9748C70.8029 27.9748 72.0466 26.7312 72.0466 25.197C72.0466 23.6629 70.8029 22.4193 69.2688 22.4193ZM19.2688 16.8637C14.6664 16.8637 10.9354 20.5947 10.9354 25.197C10.9354 29.7994 14.6664 33.5304 19.2688 33.5304C23.8711 33.5304 27.6021 29.7994 27.6021 25.197C27.6021 20.5947 23.8711 16.8637 19.2688 16.8637ZM16.491 25.197C16.491 23.6629 17.7346 22.4193 19.2688 22.4193C20.8029 22.4193 22.0466 23.6629 22.0466 25.197C22.0466 26.7312 20.8029 27.9748 19.2688 27.9748C17.7346 27.9748 16.491 26.7312 16.491 25.197ZM23.533 39.0842C22.5876 40.7185 22.0466 42.616 22.0466 44.6398L10.9354 44.6398V58.5305C10.9354 63.1329 14.6664 66.8638 19.2688 66.8638C20.4462 66.8638 21.5666 66.6196 22.5821 66.1792C22.9938 68.0202 23.6339 69.775 24.4712 71.4122C22.8644 72.0617 21.1084 72.4194 19.2688 72.4194C11.5982 72.4194 5.37988 66.2011 5.37988 58.5305V44.6398C5.37988 41.5715 7.8672 39.0842 10.9354 39.0842H23.533ZM64.0664 71.4122C65.6732 72.0617 67.4292 72.4194 69.2688 72.4194C76.9394 72.4194 83.1577 66.2011 83.1577 58.5305V44.6398C83.1577 41.5715 80.6704 39.0842 77.6021 39.0842H65.0045C65.9499 40.7185 66.491 42.616 66.491 44.6398L77.6021 44.6398V58.5305C77.6021 63.1329 73.8711 66.8638 69.2688 66.8638C68.0914 66.8638 66.971 66.6196 65.9555 66.1792C65.5438 68.0202 64.9036 69.775 64.0664 71.4122ZM33.1577 39.0842C30.0894 39.0842 27.6021 41.5715 27.6021 44.6398V61.3083C27.6021 70.513 35.064 77.9749 44.2688 77.9749C53.4735 77.9749 60.9354 70.513 60.9354 61.3083V44.6398C60.9354 41.5715 58.4481 39.0842 55.3799 39.0842H33.1577ZM33.1577 44.6398L55.3799 44.6398V61.3083C55.3799 67.4448 50.4053 72.4194 44.2688 72.4194C38.1323 72.4194 33.1577 67.4448 33.1577 61.3083V44.6398Z" fill="#F49C25"/>
</svg>
